<svg width="38" height="38" viewBox="0 0 38 38" fill="none" xmlns="http://www.w3.org/2000/svg">
<path d="M25.3333 33.25V7.91667C25.3333 7.07681 24.9997 6.27136 24.4058 5.6775C23.812 5.08363 23.0065 4.75 22.1667 4.75H15.8333C14.9935 4.75 14.188 5.08363 13.5942 5.6775C13.0003 6.27136 12.6667 7.07681 12.6667 7.91667V33.25M6.33333 11.0833H31.6667C33.4156 11.0833 34.8333 12.5011 34.8333 14.25V30.0833C34.8333 31.8322 33.4156 33.25 31.6667 33.25H6.33333C4.58443 33.25 3.16667 31.8322 3.16667 30.0833V14.25C3.16667 12.5011 4.58443 11.0833 6.33333 11.0833Z" stroke="#1E1E1E" stroke-width="2" stroke-linecap="round" stroke-linejoin="round"/>
</svg>
