<?xml version="1.0" encoding="UTF-8"?>
<svg version="1.1" xmlns="http://www.w3.org/2000/svg" width="121" height="128">
<path d="M0 0 C1.34302437 -0.00855011 1.34302437 -0.00855011 2.71318054 -0.01727295 C4.61045142 -0.0267289 6.50773876 -0.03325929 8.4050293 -0.03710938 C11.30221405 -0.04680139 14.19868537 -0.07781331 17.09570312 -0.109375 C18.93879787 -0.11590643 20.78189769 -0.12115635 22.625 -0.125 C23.48974442 -0.1373468 24.35448883 -0.1496936 25.24543762 -0.16241455 C29.93768091 -0.14511532 33.28928465 0.00263042 37.01171875 3.203125 C37.36234375 4.37875 37.71296875 5.554375 38.07421875 6.765625 C38.71359375 7.9 39.35296875 9.034375 40.01171875 10.203125 C42.97379827 10.95489898 45.88592242 11.22371898 48.921875 11.55859375 C53.80580578 12.57736566 56.97842123 15.32205972 60.01171875 19.203125 C62.25200019 23.57295287 62.30787694 27.73221299 62.30224609 32.53833008 C62.30896332 33.36501694 62.31568054 34.1917038 62.32260132 35.04344177 C62.34156167 37.76990816 62.34550464 40.49612808 62.34765625 43.22265625 C62.35408598 45.12448731 62.36081448 47.02631737 62.36782837 48.92814636 C62.37979654 52.91346529 62.38350971 56.89869757 62.38232422 60.8840332 C62.38212116 65.97828977 62.40941199 71.07198766 62.44386864 76.16611195 C62.46616224 80.09448269 62.47016099 84.02271956 62.46910477 87.95114708 C62.47145745 89.82853812 62.48026216 91.70593303 62.4957695 93.58326149 C62.51547768 96.21581169 62.5095727 98.84716475 62.49755859 101.47973633 C62.50879761 102.24728241 62.52003662 103.01482849 62.53161621 103.80563354 C62.4676564 109.35144091 61.03787471 113.53993418 58.01171875 118.203125 C56.01171875 120.04296875 56.01171875 120.04296875 54.01171875 121.140625 C53.35171875 121.52089844 52.69171875 121.90117188 52.01171875 122.29296875 C47.79185531 124.21333629 43.96820187 124.33782421 39.35058594 124.36425781 C38.35949074 124.37170517 38.35949074 124.37170517 37.34837341 124.37930298 C35.16843613 124.39387393 32.98857168 124.40071888 30.80859375 124.40625 C29.28647867 124.4120066 27.7643636 124.41776426 26.24224854 124.42352295 C23.0513068 124.43401921 19.86039015 124.43987054 16.66943359 124.44335938 C12.5964653 124.44883448 8.52383291 124.47284699 4.4509697 124.50133133 C1.30581723 124.520031 -1.83925559 124.52516724 -4.98445892 124.52669525 C-6.4850523 124.52970692 -7.98564478 124.53768484 -9.48618317 124.55088043 C-18.61459305 124.62541072 -25.91645329 124.47163635 -33.80078125 119.390625 C-38.09510543 115.09630082 -39.32642535 110.84884522 -39.41708374 104.96087646 C-39.41415314 104.17215149 -39.41122253 103.38342651 -39.40820312 102.57080078 C-39.41667267 101.72446075 -39.42514221 100.87812073 -39.43386841 100.00613403 C-39.45718649 97.22008053 -39.45826176 94.43458104 -39.45703125 91.6484375 C-39.46413628 89.70319398 -39.47183578 87.75795255 -39.48010254 85.81271362 C-39.49353567 81.73917819 -39.49512149 77.66583652 -39.48925781 73.59228516 C-39.4833648 68.38469512 -39.51394236 63.17803836 -39.55437469 57.97062874 C-39.58028695 53.95387811 -39.58312587 49.9373511 -39.57948303 45.92052841 C-39.58117117 44.00126679 -39.59078413 42.08199451 -39.60862732 40.16281509 C-39.63088585 37.47266332 -39.62108079 34.78438635 -39.60351562 32.09423828 C-39.61677887 31.30956177 -39.63004211 30.52488525 -39.64370728 29.71643066 C-39.5564798 23.93614098 -37.85073978 19.58361797 -33.98828125 15.203125 C-33.32828125 15.203125 -32.66828125 15.203125 -31.98828125 15.203125 C-31.98828125 14.543125 -31.98828125 13.883125 -31.98828125 13.203125 C-26.85908939 11.09884116 -22.42719775 10.98556834 -16.98828125 11.203125 C-16.92640625 10.48125 -16.86453125 9.759375 -16.80078125 9.015625 C-15.73464075 5.32513865 -13.84036961 3.70739771 -10.98828125 1.203125 C-7.5948531 -0.49358908 -3.73405613 0.01822344 0 0 Z M-4.98828125 13.203125 C-5.1488194 15.07634448 -5.1488194 15.07634448 -5.11328125 17.203125 C-5.11585937 17.925 -5.1184375 18.646875 -5.12109375 19.390625 C-5.18523401 21.22401915 -5.18523401 21.22401915 -3.98828125 22.203125 C-1.69676708 22.29103475 0.59744399 22.31006538 2.890625 22.30078125 C3.57728745 22.2993663 4.26394989 22.29795135 4.97142029 22.29649353 C7.17239676 22.29087979 9.37327284 22.27832507 11.57421875 22.265625 C13.06314958 22.26061176 14.55208199 22.25604855 16.04101562 22.25195312 C19.6979495 22.24090593 23.35482433 22.22363213 27.01171875 22.203125 C27.20584056 20.72481279 27.39184006 19.24543184 27.57421875 17.765625 C27.67863281 16.94191406 27.78304687 16.11820313 27.890625 15.26953125 C27.93058594 14.58761719 27.97054687 13.90570313 28.01171875 13.203125 C26.10321927 11.29462552 22.69693101 12.07252867 20.16796875 12.0703125 C19.48367798 12.06935577 18.79938721 12.06839905 18.09436035 12.06741333 C16.64509998 12.0667317 15.19583657 12.06858477 13.74658203 12.07275391 C11.52108947 12.07810248 9.29579874 12.0728084 7.0703125 12.06640625 C5.66536414 12.06706703 4.2604159 12.0683482 2.85546875 12.0703125 C1.56833984 12.07144043 0.28121094 12.07256836 -1.04492188 12.07373047 C-3.87654282 11.86626357 -3.87654282 11.86626357 -4.98828125 13.203125 Z M-25.98828125 25.203125 C-27.39049706 28.94547321 -27.14329251 32.92086512 -27.14941406 36.86157227 C-27.15437897 37.62786957 -27.15934387 38.39416687 -27.16445923 39.1836853 C-27.17903598 41.71230981 -27.18587348 44.24087168 -27.19140625 46.76953125 C-27.19715908 48.52782696 -27.2029168 50.28612266 -27.2086792 52.04441833 C-27.21917478 55.72712496 -27.22502765 59.40980983 -27.22851562 63.0925293 C-27.23401342 67.81615057 -27.25807471 72.53948549 -27.28648758 77.2630167 C-27.30508469 80.89264273 -27.31031787 84.52219916 -27.3118515 88.15186882 C-27.31488253 89.89383456 -27.32292619 91.63579894 -27.33603668 93.37771797 C-27.35304481 95.81006057 -27.35123067 98.24169474 -27.34472656 100.67407227 C-27.35394135 101.3957106 -27.36315613 102.11734894 -27.37265015 102.8608551 C-27.34955977 105.60998807 -27.25674173 107.72665509 -25.8916626 110.14942932 C-22.98146394 111.76049048 -20.48807322 111.58496541 -17.17773438 111.59130859 C-16.48961166 111.59656555 -15.80148895 111.60182251 -15.09251404 111.60723877 C-12.81795552 111.62044242 -10.54409688 111.61169996 -8.26953125 111.6015625 C-6.68916693 111.60358314 -5.10880351 111.6064945 -3.52844238 111.61026001 C-0.21629967 111.61468384 3.09560034 111.6082506 6.40771484 111.59423828 C10.65500965 111.57714614 14.90173577 111.58698704 19.1490097 111.60495567 C22.41237682 111.61579206 25.67560894 111.61234789 28.9389801 111.6045723 C30.50509203 111.60256987 32.07121619 111.60503105 33.63731384 111.61201096 C35.82559718 111.61962331 38.01295736 111.6080256 40.20117188 111.59130859 C41.4467688 111.58892181 42.69236572 111.58653503 43.97570801 111.58407593 C46.92300556 111.40337176 46.92300556 111.40337176 48.91212463 110.16090393 C50.64415073 107.07710769 50.43671473 103.93479835 50.41577148 100.49047852 C50.42606636 99.31440033 50.42606636 99.31440033 50.43656921 98.11456299 C50.45488544 95.52020203 50.45099288 92.92644305 50.4453125 90.33203125 C50.44987214 88.52985944 50.45517706 86.72768937 50.4611969 84.92552185 C50.47013757 81.14680929 50.46769422 77.36830797 50.45776367 73.58959961 C50.44627523 68.74595132 50.46647847 63.90303218 50.49568081 59.05947971 C50.51402336 55.3371263 50.51375421 51.61494822 50.50804329 47.89256096 C50.50788982 46.10676997 50.51395511 44.32096728 50.52633476 42.53521919 C50.54120588 40.03806912 50.53059719 37.54227357 50.51342773 35.04516602 C50.5230957 34.30685043 50.53276367 33.56853485 50.54272461 32.80784607 C50.49347916 29.3891076 50.23937613 27.51125812 48.18348694 24.72862244 C45.34105736 22.73203778 43.40833001 22.89434216 40.01171875 23.203125 C39.75777344 23.75742187 39.50382812 24.31171875 39.2421875 24.8828125 C38.72591797 25.96949219 38.72591797 25.96949219 38.19921875 27.078125 C37.86277344 27.79742188 37.52632813 28.51671875 37.1796875 29.2578125 C36.01171875 31.203125 36.01171875 31.203125 33.01171875 33.203125 C31.05215454 33.47055054 31.05215454 33.47055054 28.80322266 33.49365234 C27.53643173 33.5127919 27.53643173 33.5127919 26.24404907 33.53231812 C24.879944 33.53565659 24.879944 33.53565659 23.48828125 33.5390625 C22.54995453 33.5457193 21.61162781 33.5523761 20.64486694 33.55923462 C18.65942343 33.56936117 16.67394588 33.57405164 14.68847656 33.57373047 C11.65502603 33.57809864 8.62303632 33.61440421 5.58984375 33.65234375 C3.66016122 33.65821294 1.73047179 33.66218165 -0.19921875 33.6640625 C-1.10457367 33.67843353 -2.00992859 33.69280457 -2.94271851 33.70761108 C-7.09313466 33.67759505 -9.39781424 33.55892777 -13.01806641 31.37744141 C-15.354411 28.79906656 -16.15059547 26.55386811 -16.98828125 23.203125 C-20.54972224 23.00526717 -23.03283004 23.09208842 -25.98828125 25.203125 Z " fill="#6E4A11" transform="translate(49.98828125,3.796875)"/>
<path d="M0 0 C0.9029631 0.00424484 1.80592621 0.00848969 2.73625183 0.01286316 C5.60963225 0.02960564 8.48230166 0.06724959 11.35546875 0.10546875 C13.30793255 0.12052132 15.26040739 0.13420872 17.21289062 0.14648438 C21.98985572 0.17949467 26.76629184 0.2312464 31.54296875 0.29296875 C31.54296875 0.62296875 31.54296875 0.95296875 31.54296875 1.29296875 C30.35743408 1.29184082 29.17189941 1.29071289 27.95043945 1.28955078 C23.5424032 1.29322803 19.1354593 1.33607362 14.7277832 1.390625 C12.82193038 1.40876827 10.91594614 1.41635653 9.01000977 1.41308594 C6.26605913 1.41022393 3.52482401 1.44558618 0.78125 1.48828125 C-0.06789474 1.47918732 -0.91703949 1.47009338 -1.79191589 1.46072388 C-6.28640783 1.49447512 -6.28640783 1.49447512 -10.0350647 3.68206787 C-11.22127584 5.18415495 -12.34343763 6.73628263 -13.45703125 8.29296875 C-14.44703125 8.29296875 -15.43703125 8.29296875 -16.45703125 8.29296875 C-15.57912097 5.33999782 -14.8627539 3.62913895 -12.46606445 1.64331055 C-8.25493618 -0.24648665 -4.56218368 -0.08110068 0 0 Z " fill="#A48453" transform="translate(50.45703125,3.70703125)"/>
<path d="M0 0 C0.99 0.33 1.98 0.66 3 1 C-0.61328125 5.6875 -0.61328125 5.6875 -2 7 C-2.99 7 -3.98 7 -5 7 C-3.75023244 3.34683329 -3.32901247 2.21934164 0 0 Z " fill="#886736" transform="translate(39,5)"/>
<path d="M0 0 C0.99 0.33 1.98 0.66 3 1 C1.83857315 5.35535069 0.92300495 7.64619703 -3 10 C-3 8.68 -3 7.36 -3 6 C-2.34 6 -1.68 6 -1 6 C-0.67 4.02 -0.34 2.04 0 0 Z " fill="#957845" transform="translate(108,114)"/>
<path d="M0 0 C3.65316671 1.24976756 4.78065836 1.67098753 7 5 C6.625 7.1875 6.625 7.1875 6 9 C2.63764615 6.75843077 2.76539094 6.60827159 2 3 C1.34 2.01 0.68 1.02 0 0 Z " fill="#917541" transform="translate(82,5)"/>
<path d="M0 0 C0.66 0.33 1.32 0.66 2 1 C0.6875 2.5 0.6875 2.5 -1 4 C-1.99 4 -2.98 4 -4 4 C-4 4.66 -4 5.32 -4 6 C-4.66 6 -5.32 6 -6 6 C-5.67 5.01 -5.34 4.02 -5 3 C-4.34 3 -3.68 3 -3 3 C-3 2.34 -3 1.68 -3 1 C-2.01 0.67 -1.02 0.34 0 0 Z " fill="#9F8255" transform="translate(21,16)"/>
<path d="" fill="#FFFFFF" transform="translate(0,0)"/>
<path d="" fill="#FFFFFF" transform="translate(0,0)"/>
<path d="" fill="#FFFFFF" transform="translate(0,0)"/>
<path d="" fill="#FFFFFF" transform="translate(0,0)"/>
<path d="" fill="#FFFFFF" transform="translate(0,0)"/>
<path d="" fill="#FFFFFF" transform="translate(0,0)"/>
<path d="" fill="#FFFFFF" transform="translate(0,0)"/>
<path d="" fill="#FFFFFF" transform="translate(0,0)"/>
<path d="" fill="#FFFFFF" transform="translate(0,0)"/>
<path d="" fill="#FFFFFF" transform="translate(0,0)"/>
<path d="" fill="#FFFFFF" transform="translate(0,0)"/>
<path d="" fill="#FFFFFF" transform="translate(0,0)"/>
<path d="" fill="#FFFFFF" transform="translate(0,0)"/>
<path d="" fill="#FFFFFF" transform="translate(0,0)"/>
<path d="" fill="#FFFFFF" transform="translate(0,0)"/>
<path d="" fill="#FFFFFF" transform="translate(0,0)"/>
<path d="" fill="#FFFFFF" transform="translate(0,0)"/>
<path d="" fill="#FFFFFF" transform="translate(0,0)"/>
<path d="" fill="#FFFFFF" transform="translate(0,0)"/>
<path d="" fill="#FFFFFF" transform="translate(0,0)"/>
<path d="" fill="#FFFFFF" transform="translate(0,0)"/>
<path d="" fill="#FFFFFF" transform="translate(0,0)"/>
<path d="" fill="#FFFFFF" transform="translate(0,0)"/>
<path d="" fill="#FFFFFF" transform="translate(0,0)"/>
<path d="" fill="#FFFFFF" transform="translate(0,0)"/>
<path d="" fill="#FFFFFF" transform="translate(0,0)"/>
<path d="" fill="#FFFFFF" transform="translate(0,0)"/>
<path d="" fill="#FFFFFF" transform="translate(0,0)"/>
<path d="" fill="#FFFFFF" transform="translate(0,0)"/>
<path d="" fill="#FFFFFF" transform="translate(0,0)"/>
<path d="" fill="#FFFFFF" transform="translate(0,0)"/>
<path d="" fill="#FFFFFF" transform="translate(0,0)"/>
<path d="" fill="#FFFFFF" transform="translate(0,0)"/>
<path d="" fill="#FFFFFF" transform="translate(0,0)"/>
<path d="" fill="#FFFFFF" transform="translate(0,0)"/>
<path d="" fill="#FFFFFF" transform="translate(0,0)"/>
<path d="" fill="#FFFFFF" transform="translate(0,0)"/>
<path d="" fill="#FFFFFF" transform="translate(0,0)"/>
<path d="" fill="#FFFFFF" transform="translate(0,0)"/>
<path d="" fill="#FFFFFF" transform="translate(0,0)"/>
</svg>
