<svg width="101" height="98" viewBox="0 0 101 98" fill="none" xmlns="http://www.w3.org/2000/svg">
<circle cx="49" cy="49" r="49" fill="#F7F9FF"/>
<path d="M29.152 74.224C28.8 74.224 28.4 74.208 27.952 74.176C27.504 74.176 27.104 74.144 26.752 74.08V67.936C27.008 68 27.296 68.032 27.616 68.032C27.904 68.064 28.176 68.08 28.432 68.08C28.944 68.08 29.376 67.952 29.728 67.696C30.112 67.472 30.4 67.008 30.592 66.304C30.784 65.6 30.88 64.592 30.88 63.28V38.56H38.272V64C38.272 66.688 38 68.768 37.456 70.24C36.944 71.712 36.016 72.736 34.672 73.312C33.36 73.92 31.52 74.224 29.152 74.224ZM34.576 36.16C33.2 36.16 32.128 35.808 31.36 35.104C30.624 34.368 30.256 33.44 30.256 32.32C30.256 31.2 30.624 30.288 31.36 29.584C32.128 28.848 33.2 28.48 34.576 28.48C35.952 28.48 37.008 28.848 37.744 29.584C38.512 30.288 38.896 31.2 38.896 32.32C38.896 33.44 38.512 34.368 37.744 35.104C37.008 35.808 35.952 36.16 34.576 36.16ZM55.5719 64.624C53.0759 64.624 50.8519 64.144 48.8999 63.184C46.9479 62.224 45.4119 60.768 44.2919 58.816C43.1719 56.864 42.6119 54.432 42.6119 51.52V50.56C42.6119 47.872 43.1879 45.584 44.3399 43.696C45.5239 41.808 47.0919 40.384 49.0439 39.424C51.0279 38.432 53.2039 37.936 55.5719 37.936C58.1319 37.936 60.2759 38.384 62.0039 39.28C63.7319 40.144 65.0599 41.312 65.9879 42.784C66.9159 44.256 67.4439 45.888 67.5719 47.68H59.9399C59.7159 46.528 59.2519 45.648 58.5479 45.04C57.8759 44.4 56.8839 44.08 55.5719 44.08C54.5479 44.08 53.6199 44.32 52.7879 44.8C51.9879 45.28 51.3479 46 50.8679 46.96C50.4199 47.888 50.1959 49.088 50.1959 50.56V51.52C50.1959 53.088 50.4199 54.384 50.8679 55.408C51.3159 56.432 51.9399 57.2 52.7399 57.712C53.5399 58.192 54.4839 58.432 55.5719 58.432C56.6919 58.432 57.6359 58.144 58.4039 57.568C59.2039 56.96 59.7159 56.064 59.9399 54.88H67.5719C67.4439 56.864 66.8679 58.592 65.8439 60.064C64.8199 61.536 63.4279 62.672 61.6679 63.472C59.9399 64.24 57.9079 64.624 55.5719 64.624ZM75.6644 64.624C74.8324 64.624 74.0644 64.416 73.3604 64C72.6564 63.616 72.0964 63.088 71.6804 62.416C71.2964 61.712 71.1044 60.912 71.1044 60.016C71.1044 58.768 71.5364 57.712 72.4004 56.848C73.2964 55.952 74.3844 55.504 75.6644 55.504C76.9444 55.504 78.0324 55.952 78.9284 56.848C79.8244 57.712 80.2724 58.768 80.2724 60.016C80.2724 60.912 80.0644 61.712 79.6484 62.416C79.2324 63.088 78.6724 63.616 77.9684 64C77.2964 64.416 76.5284 64.624 75.6644 64.624Z" fill="#042587"/>
</svg>
